<?xml version="1.0" encoding="iso-8859-1"?>
<!-- Generator: Adobe Illustrator 18.0.0, SVG Export Plug-In . SVG Version: 6.00 Build 0)  -->
<!DOCTYPE svg PUBLIC "-//W3C//DTD SVG 1.1//EN" "http://www.w3.org/Graphics/SVG/1.1/DTD/svg11.dtd">
<svg version="1.1" id="Capa_1" xmlns="http://www.w3.org/2000/svg" xmlns:xlink="http://www.w3.org/1999/xlink" x="0px" y="0px"
	 viewBox="0 0 47.807 47.807" style="enable-background:new 0 0 47.807 47.807;" xml:space="preserve">
<g>
	<path style="fill:#1D1D1B;" d="M44.389,17.261c-0.141-0.494-0.826-0.838-1.239-0.361c-4.828,5.579-9.008-2.975-10.33-6.551
		c-0.777-2.104-1.445-4.26-2.842-6.06c-2.299-2.962-6.055-4.407-9.749-4.282C14.123,0.213,9.887,4.465,7.991,9.727
		c-1.889,0.12-3.899,0.734-5.687,1.205c-0.736,0.194-0.729,1.095-0.195,1.49c1.53,1.132,3.084,2.24,4.771,3.124
		c-0.029,0.972,0.008,1.943,0.134,2.896c1.028,7.775,6.489,16.3,14.286,18.359c-0.011,0.151-0.016,0.294-0.027,0.365
		c-0.154,0.995-0.257,1.994-0.335,2.998c-0.056,0.719-0.144,1.459-0.215,2.204c-0.991,0.196-1.898,0.779-2.533,1.629
		c-0.342,0.458,0.403,1.017,0.787,0.607c0.437-0.467,1.026-0.806,1.651-0.94c-0.046,0.935-0.026,1.864,0.164,2.755
		c0.166,0.777,1.282,0.694,1.492,0c0.226-0.747,0.322-1.534,0.361-2.333c0.871,0.656,0.891,1.633,1.203,2.641
		c0.217,0.702,1.088,0.611,1.339,0c0.676-1.649-0.945-3.617-2.408-4.186c-0.038-0.015-0.077-0.02-0.115-0.033
		c-0.01-0.656-0.03-1.308-0.027-1.941c0.006-1.128,0.112-2.353-0.074-3.491c0.941,0.158,1.912,0.227,2.91,0.186
		c1.263-0.052,2.466-0.239,3.617-0.528c0.101,1.74,0.244,3.474,0.396,5.21c-0.439,0.087-0.862,0.243-1.226,0.514
		c-0.812,0.605-1.202,1.634-0.553,2.493c0.324,0.428,1.153,0.208,0.948-0.4c-0.186-0.552,0.439-0.864,0.958-0.974
		c0.09,1.355,0.181,2.71,0.769,3.942c0.217,0.455,0.994,0.347,1.092-0.143c0.222-1.107,0.084-2.239-0.109-3.363
		c0.039,0.027,0.081,0.05,0.119,0.078c0.979,0.735,0.891,1.604,1.218,2.648c0.21,0.67,1.104,0.79,1.478,0.193
		c1.229-1.959-1.159-4.476-2.972-4.943c-0.065-0.017-0.135-0.019-0.201-0.032c-0.296-1.842-0.599-3.679-0.954-5.511
		c7.961-2.496,13.155-10.348,15.955-18.062C46.392,17.32,45.165,16.794,44.389,17.261z M6.957,14.391
		c-0.85-0.741-1.71-1.471-2.581-2.188c1.031-0.192,2.084-0.41,3.077-0.722C7.213,12.437,7.048,13.41,6.957,14.391z M42.339,21.148
		c-1.813-0.053-3.629,0.006-5.446-0.111c-0.34-0.022-0.421,0.536-0.081,0.601c1.6,0.304,3.363,0.507,5.043,0.396
		c-0.388,0.694-0.794,1.389-1.228,2.079c-1.322-0.22-2.968,0.08-4.114,0.509c-0.169,0.063-0.158,0.336,0.045,0.331
		c0.839-0.02,1.674-0.106,2.514-0.1c0.354,0.002,0.706,0.028,1.058,0.044c-0.563,0.85-1.15,1.69-1.783,2.496
		c-1.141-0.113-2.327-0.094-3.436-0.135c-0.384-0.014-0.362,0.539,0,0.584c0.903,0.111,1.852,0.267,2.795,0.36
		c-0.832,0.993-1.716,1.93-2.652,2.777c-1.167-0.078-2.37-0.055-3.471-0.078c-0.326-0.007-0.305,0.454,0,0.492
		c0.82,0.104,1.695,0.25,2.573,0.357c-0.769,0.626-1.565,1.197-2.393,1.681c-0.016-0.065-0.053-0.124-0.132-0.137
		c-1.516-0.253-3.262-0.059-4.758,0.256c-0.103,0.022-0.111,0.202,0,0.217c1.354,0.185,2.889,0.251,4.27,0.008
		c-3.605,1.904-7.722,2.299-12.181-0.083c-9.751-5.207-14.441-22.794-4.135-29.7c4.765-3.193,10.611-2.216,13.861,2.063
		c-0.819-0.092-1.644-0.152-2.46-0.232c-0.203-0.02-0.252,0.327-0.049,0.359c0.968,0.154,1.941,0.344,2.917,0.466
		c0.282,0.427,0.548,0.872,0.779,1.355c0.176,0.37,0.332,0.749,0.485,1.13c-0.818-0.008-1.645,0.044-2.449,0.056
		c-0.461,0.007-0.462,0.71,0,0.717c0.907,0.014,1.845,0.085,2.764,0.054c0.433,1.185,0.813,2.395,1.26,3.573
		c-0.563,0.006-1.127,0.023-1.688,0.032c-0.292,0.005-0.287,0.431,0,0.45c0.643,0.042,1.288,0.093,1.933,0.126
		c0.401,0.981,0.864,1.932,1.483,2.808c-0.798,0.017-1.576,0.032-2.397-0.132c-0.255-0.051-0.364,0.323-0.108,0.393
		c0.914,0.25,1.948,0.425,2.916,0.307c2.442,2.982,6.73,4.033,9.408,1.311C43.139,19.589,42.753,20.366,42.339,21.148z"/>
	<path style="fill:#1D1D1B;" d="M32.849,20.418c-0.942-0.515-2.323-1.279-3.413-1.064c-0.416,0.082-0.491,0.62-0.237,0.896
		c0.434,0.471,1.098,0.632,1.662,0.917c0.58,0.293,1.271,0.622,1.78,1.03c0.609,0.488,0.198,1.183-0.447,1.418
		c-0.792,0.289-1.767-0.151-2.515-0.404c-0.089-0.03-0.169-0.021-0.242,0.005c-0.178-0.079-0.353-0.162-0.519-0.253
		c-0.604-0.331-1.183,0.319-0.902,0.902c0.301,0.625,0.864,0.985,1.474,1.28c0.608,0.295,1.727,0.564,1.904,1.296
		c0.21,0.866-1.042,1.025-1.696,0.998c-0.127-0.005-0.25-0.034-0.375-0.051c-0.558-0.893-1.489-1.594-2.427-2.043
		c-0.68-0.325-1.365,0.479-0.82,1.063c0.02,0.022,0.044,0.045,0.065,0.067c-0.049,0.128-0.034,0.279,0.102,0.416
		c0.312,0.315,0.707,0.623,1.148,0.899c0.274,0.344,0.496,0.708,0.573,1.09c0.25,1.229-1.093,1.552-2.017,1.427
		c-2.183-0.296-3.465-2.774-3.419-4.772c0.011-0.492-0.797-0.627-0.881-0.119c-0.527,3.211,1.716,6.875,5.29,6.566
		c1.42-0.123,2.679-1.021,2.874-2.499c0.034-0.259,0.03-0.508,0.002-0.75c1.071,0.163,2.126-0.043,2.879-0.899
		c0.768-0.874,0.634-2.105-0.127-2.938c-0.032-0.035-0.07-0.063-0.103-0.096c0.092-0.015,0.184-0.026,0.276-0.051
		c0.894-0.244,1.682-1.045,1.802-1.977C34.688,21.633,33.746,20.908,32.849,20.418z"/>
	<path style="fill:#1D1D1B;" d="M20.177,10.153c-0.503-0.935-1.479-1.674-2.562-1.728c-2.069-0.105-3.84,2.41-2.392,4.137
		c0.381,0.455,0.998-0.124,0.773-0.596c-0.513-1.077,0.874-2.378,1.925-1.897c0.517,0.237,0.88,0.768,1.065,1.29
		c0.195,0.548,0.077,1.125,0.247,1.67c0.126,0.405,0.735,0.664,1.043,0.275C20.979,12.419,20.675,11.08,20.177,10.153z"/>
</g>
<g>
</g>
<g>
</g>
<g>
</g>
<g>
</g>
<g>
</g>
<g>
</g>
<g>
</g>
<g>
</g>
<g>
</g>
<g>
</g>
<g>
</g>
<g>
</g>
<g>
</g>
<g>
</g>
<g>
</g>
</svg>
