<svg width="65" height="65" viewBox="0 0 65 65" fill="none" xmlns="http://www.w3.org/2000/svg">
<g filter="url(#filter0_d)">
<path d="M52.6708 9.0528C48.7551 5.1365 43.766 2.4693 38.3344 1.3885C32.9028 0.307699 27.2727 0.861898 22.1561 2.981C17.0395 5.1001 12.6662 8.689 9.5893 13.2936C6.5124 17.8983 4.8701 23.312 4.8701 28.8501C4.8701 34.3882 6.5124 39.8019 9.5893 44.4066C12.6662 49.0112 17.0395 52.6001 22.1561 54.7192C27.2727 56.8383 32.9028 57.3925 38.3344 56.3117C43.766 55.2309 48.7551 52.5637 52.6708 48.6474C57.9208 43.3965 60.8701 36.2753 60.8701 28.8501C60.8701 21.4249 57.9208 14.3037 52.6708 9.0528ZM12.1726 19.3746C13.5835 16.2452 15.6741 13.4695 18.2925 11.2495C20.9108 9.0295 23.991 7.4209 27.309 6.5408C30.6271 5.6607 34.0996 5.5312 37.474 6.1617C40.8484 6.7922 44.0398 8.1668 46.8163 10.1856C39.9435 9.5365 31.3399 13.0492 24.3654 20.011C21.7331 22.639 19.503 25.6411 17.7472 28.9201C15.3591 26.0789 13.4738 22.8506 12.1726 19.3746ZM27.6108 51.8546C22.2964 50.4307 17.6638 47.1587 14.545 42.6262C11.4262 38.0938 10.0255 32.5979 10.5945 27.1255C13.4835 33.4001 20.7763 39.1019 30.3472 41.6474C33.9202 42.6166 37.6181 43.0456 41.3181 42.9201C40.0606 46.3985 38.2231 49.6389 35.8835 52.5037C33.1079 52.7845 30.3043 52.5559 27.6108 51.8292V51.8546ZM45.0345 25.2419C44.091 21.6528 42.6244 18.2221 40.6817 15.0601C44.3207 14.4123 48.0432 14.3865 51.6908 14.9837C53.3235 17.244 54.5271 19.785 55.2417 22.4801C56.668 27.7953 56.1521 33.4449 53.7866 38.4138C51.4211 43.3827 47.3612 47.3451 42.3363 49.5892C46.3072 43.9765 47.5799 34.7746 45.0345 25.2419Z" fill="white" fill-opacity="0.9"/>
</g>
<defs>
<filter id="filter0_d" x="0.870098" y="0.850101" width="64" height="64" filterUnits="userSpaceOnUse" color-interpolation-filters="sRGB">
<feFlood flood-opacity="0" result="BackgroundImageFix"/>
<feColorMatrix in="SourceAlpha" type="matrix" values="0 0 0 0 0 0 0 0 0 0 0 0 0 0 0 0 0 0 127 0"/>
<feOffset dy="4"/>
<feGaussianBlur stdDeviation="2"/>
<feColorMatrix type="matrix" values="0 0 0 0 0 0 0 0 0 0 0 0 0 0 0 0 0 0 0.25 0"/>
<feBlend mode="normal" in2="BackgroundImageFix" result="effect1_dropShadow"/>
<feBlend mode="normal" in="SourceGraphic" in2="effect1_dropShadow" result="shape"/>
</filter>
</defs>
</svg>
